<svg width="728" height="728" viewBox="0 0 728 728" fill="none" xmlns="http://www.w3.org/2000/svg">
<rect width="727.527" height="727.526" rx="24" fill="black"/>
<path d="M344.715 546C348.341 545.437 352.68 545.77 357.764 546.328L459.68 648.243C433.937 656.93 407.253 662.023 380.403 663.526L311.833 594.957C326.593 568.644 339.544 546.803 344.715 546ZM332.094 662.359C314.402 660.506 296.845 657.082 279.646 652.091C284.545 643.778 289.732 634.603 294.967 625.232L332.094 662.359ZM552.31 597.186C533.82 612.193 513.96 624.67 493.193 634.62L404.433 545.859C422.096 542.095 443.169 532.967 467.923 512.8L552.31 597.186ZM152.767 150.506C270.03 34.7123 458.959 35.1667 575.659 151.868C692.358 268.569 692.816 457.497 577.022 574.76L492.494 490.231C516.404 466.232 527.938 452.623 533.304 445.589C545.885 434.696 547.996 415.754 537.784 402.319C534.221 397.631 529.608 394.211 524.525 392.134C528.844 382.55 528.324 371.031 522.131 361.591C515.904 352.099 505.466 347.034 494.896 347.238C498.541 337.958 497.778 327.111 491.893 318.14C483.356 305.13 466.907 300.433 453.054 306.231C460.058 298.374 477.11 280.68 496.904 260.829C538.182 219.432 544.285 212.728 545.185 207.807C548.267 190.917 537.67 177.17 521.583 177.189C517.43 177.195 512.035 178.225 509.593 179.477C507.142 180.738 470.513 216.36 428.188 258.644C385.867 300.928 350.098 335.526 348.693 335.538C344.655 335.538 343.107 330.972 344.715 323.814C347.016 313.569 353.458 267.678 353.423 261.771C353.306 242.356 332.056 229.233 314.498 237.732C302.862 243.366 300.914 247.921 295.774 281.518C295.243 284.994 294.697 288.45 294.145 291.884L152.767 150.506ZM175.33 505.596C157.467 521.672 140.59 537.251 128.446 550.42C92.0505 504.639 70.9576 450.686 65.1699 395.436L175.33 505.596ZM248.802 437.366C235.974 450.95 218.462 466.937 200.195 483.32L64 347.127C65.5033 320.277 70.5979 293.59 79.2832 267.849L248.802 437.366ZM287.038 331.917C281.73 359.143 275.677 384.983 268.857 409.536C268.805 409.725 268.746 409.917 268.685 410.11L92.9072 234.333C102.857 213.567 115.335 193.708 130.34 175.22L287.038 331.917ZM297.38 159.474C296.428 159.475 294.605 160.521 293.325 161.8C292.047 163.08 291 164.984 291 166.032C291.008 168.899 339.785 217.193 342.672 217.193C345.799 217.193 348.718 214.363 348.719 211.331C348.715 208.679 300.002 159.474 297.38 159.474ZM445.282 159.474C443.97 159.477 432.031 170.272 418.75 183.465C399.12 202.964 394.598 208.225 394.598 211.556C394.598 214.751 395.46 215.873 398.493 216.634C402.018 217.518 404.751 215.236 427.353 192.526C441.076 178.735 452.308 166.705 452.317 165.784C452.317 163.33 448.017 159.474 445.282 159.474ZM374.497 127.813C370.991 126.468 369.875 126.69 367.323 129.24C365.346 131.219 364.999 136.618 364.999 165.394C364.999 194.172 365.346 199.57 367.323 201.549C368.603 202.827 370.469 203.874 371.468 203.874C376.38 203.874 376.839 200.514 376.839 164.516C376.839 133.234 376.542 128.598 374.497 127.813Z" fill="white"/>
</svg>
