<svg width="25" height="25" viewBox="0 0 25 25" fill="none" xmlns="http://www.w3.org/2000/svg">
<mask id="mask0_737_88" style="mask-type:alpha" maskUnits="userSpaceOnUse" x="0" y="0" width="25" height="25">
<rect x="0.234741" y="0.914062" width="24" height="24" fill="current"/>
</mask>
<g mask="url(#mask0_737_88)">
<path d="M5.23474 21.9141C4.68474 21.9141 4.21391 21.7182 3.82224 21.3266C3.43057 20.9349 3.23474 20.4641 3.23474 19.9141V5.91406C3.23474 5.36406 3.43057 4.89323 3.82224 4.50156C4.21391 4.1099 4.68474 3.91406 5.23474 3.91406H9.40974C9.59307 3.33073 9.95141 2.85156 10.4847 2.47656C11.0181 2.10156 11.6014 1.91406 12.2347 1.91406C12.9014 1.91406 13.4972 2.10156 14.0222 2.47656C14.5472 2.85156 14.9014 3.33073 15.0847 3.91406H19.2347C19.7847 3.91406 20.2556 4.1099 20.6472 4.50156C21.0389 4.89323 21.2347 5.36406 21.2347 5.91406V19.9141C21.2347 20.4641 21.0389 20.9349 20.6472 21.3266C20.2556 21.7182 19.7847 21.9141 19.2347 21.9141H5.23474ZM5.23474 19.9141H19.2347V5.91406H17.2347V8.91406H7.23474V5.91406H5.23474V19.9141ZM12.2347 5.91406C12.5181 5.91406 12.7556 5.81823 12.9472 5.62656C13.1389 5.4349 13.2347 5.1974 13.2347 4.91406C13.2347 4.63073 13.1389 4.39323 12.9472 4.20156C12.7556 4.0099 12.5181 3.91406 12.2347 3.91406C11.9514 3.91406 11.7139 4.0099 11.5222 4.20156C11.3306 4.39323 11.2347 4.63073 11.2347 4.91406C11.2347 5.1974 11.3306 5.4349 11.5222 5.62656C11.7139 5.81823 11.9514 5.91406 12.2347 5.91406Z" fill="current"/>
</g>
</svg>
