<svg width="24" height="25" viewBox="0 0 24 25" fill="none" xmlns="http://www.w3.org/2000/svg">
<mask id="mask0_9_503" style="mask-type:alpha" maskUnits="userSpaceOnUse" x="0" y="0" width="24" height="25">
<rect width="24" height="24" transform="matrix(-1 0 0 1 24 0.5)" fill="current"/>
</mask>
<g mask="url(#mask0_9_503)">
<path d="M15 18.5C15.55 18.5 16.0208 18.3042 16.4125 17.9125C16.8042 17.5208 17 17.05 17 16.5V4.5C17 3.95 16.8042 3.47917 16.4125 3.0875C16.0208 2.69583 15.55 2.5 15 2.5H6C5.45 2.5 4.97917 2.69583 4.5875 3.0875C4.19583 3.47917 4 3.95 4 4.5V16.5C4 17.05 4.19583 17.5208 4.5875 17.9125C4.97917 18.3042 5.45 18.5 6 18.5H15ZM15 16.5H6V4.5H15V16.5ZM19 22.5C19.55 22.5 20.0208 22.3042 20.4125 21.9125C20.8042 21.5208 21 21.05 21 20.5V6.5H19V20.5H8V22.5H19Z" fill="current"/>
</g>
</svg>
