<svg width="96" height="96" viewBox="0 0 96 96" fill="none" xmlns="http://www.w3.org/2000/svg">
<path d="M92.0232 0H45.8052C45.8052 11.52 55.1292 20.848 66.6522 20.848H75.1522V29.074C75.1522 40.594 84.4802 49.922 96.0002 49.922V3.977C95.9994 2.92248 95.5801 1.91137 94.8345 1.16571C94.0888 0.420054 93.0777 0.000794567 92.0232 0Z" fill="#2684FF"/>
<path d="M69.1209 23.0401H22.9019C22.9019 34.5591 32.2269 43.8871 43.7459 43.8871H52.2499V52.1131C52.2499 63.6331 61.5779 72.9611 73.0979 72.9611V27.0161C73.0963 25.9618 72.6768 24.9511 71.9313 24.2057C71.1858 23.4602 70.1751 23.0416 69.1209 23.0401Z" fill="url(#paint0_linear_754_82)"/>
<path d="M46.219 46.0781H0C0 57.6021 9.324 66.9261 20.848 66.9261H29.348V75.1561C29.348 86.6761 38.676 96.0001 50.195 96.0001V50.0591C50.1939 49.0046 49.7748 47.9935 49.0295 47.2474C48.2842 46.5014 47.2735 46.0802 46.219 46.0781Z" fill="url(#paint1_linear_754_82)"/>
<defs>
<linearGradient id="paint0_linear_754_82" x1="72.1359" y1="23.0921" x2="52.4719" y2="43.3681" gradientUnits="userSpaceOnUse">
<stop offset="0.176" stop-color="#0052CC"/>
<stop offset="1" stop-color="#2684FF"/>
</linearGradient>
<linearGradient id="paint1_linear_754_82" x1="50.564" y1="46.2561" x2="27.828" y2="68.3761" gradientUnits="userSpaceOnUse">
<stop offset="0.176" stop-color="#0052CC"/>
<stop offset="1" stop-color="#2684FF"/>
</linearGradient>
</defs>
</svg>
