<svg width="25" height="25" viewBox="0 0 25 25" fill="none" xmlns="http://www.w3.org/2000/svg">
<mask id="mask0_267_229" style="mask-type:alpha" maskUnits="userSpaceOnUse" x="0" y="0" width="25" height="25">
<rect x="0.508789" y="0.530273" width="24" height="24" fill="current"/>
</mask>
<g mask="url(#mask0_267_229)">
<path d="M12.5088 14.5303C11.6755 14.5303 10.9671 14.2386 10.3838 13.6553C9.80046 13.0719 9.50879 12.3636 9.50879 11.5303V5.53027C9.50879 4.69694 9.80046 3.98861 10.3838 3.40527C10.9671 2.82194 11.6755 2.53027 12.5088 2.53027C13.3421 2.53027 14.0505 2.82194 14.6338 3.40527C15.2171 3.98861 15.5088 4.69694 15.5088 5.53027V11.5303C15.5088 12.3636 15.2171 13.0719 14.6338 13.6553C14.0505 14.2386 13.3421 14.5303 12.5088 14.5303ZM11.5088 21.5303V18.4553C9.77546 18.2219 8.34212 17.4469 7.20879 16.1303C6.07546 14.8136 5.50879 13.2803 5.50879 11.5303H7.50879C7.50879 12.9136 7.99629 14.0928 8.97129 15.0678C9.94629 16.0428 11.1255 16.5303 12.5088 16.5303C13.8921 16.5303 15.0713 16.0428 16.0463 15.0678C17.0213 14.0928 17.5088 12.9136 17.5088 11.5303H19.5088C19.5088 13.2803 18.9421 14.8136 17.8088 16.1303C16.6755 17.4469 15.2421 18.2219 13.5088 18.4553V21.5303H11.5088ZM12.5088 12.5303C12.7921 12.5303 13.0296 12.4344 13.2213 12.2428C13.413 12.0511 13.5088 11.8136 13.5088 11.5303V5.53027C13.5088 5.24694 13.413 5.00944 13.2213 4.81777C13.0296 4.62611 12.7921 4.53027 12.5088 4.53027C12.2255 4.53027 11.988 4.62611 11.7963 4.81777C11.6046 5.00944 11.5088 5.24694 11.5088 5.53027V11.5303C11.5088 11.8136 11.6046 12.0511 11.7963 12.2428C11.988 12.4344 12.2255 12.5303 12.5088 12.5303Z" fill="current"/>
</g>
</svg>
