<svg width="25" height="25" viewBox="0 0 25 25" fill="none" xmlns="http://www.w3.org/2000/svg">
<mask id="mask0_102_139" style="mask-type:alpha" maskUnits="userSpaceOnUse" x="0" y="0" width="25" height="25">
<rect x="0.494141" y="0.770508" width="24" height="24" fill="current"/>
</mask>
<g mask="url(#mask0_102_139)">
<path d="M11.4941 10.7705V19.7705C11.4941 20.3228 11.9419 20.7705 12.4941 20.7705H13.4941C14.0464 20.7705 14.4941 20.3228 14.4941 19.7705V10.7705C14.4941 10.2182 14.0464 9.77051 13.4941 9.77051H12.4941C11.9419 9.77051 11.4941 10.2182 11.4941 10.7705Z" fill="current"/>
<path d="M17.4941 5.77051V19.7705C17.4941 20.3228 17.9419 20.7705 18.4941 20.7705H19.4941C20.0464 20.7705 20.4941 20.3228 20.4941 19.7705V5.77051C20.4941 5.21822 20.0464 4.77051 19.4941 4.77051H18.4941C17.9419 4.77051 17.4941 5.21822 17.4941 5.77051Z" fill="current"/>
<path d="M6.49414 20.7705C5.94186 20.7705 5.49414 20.3228 5.49414 19.7705V15.7705C5.49414 15.2182 5.94186 14.7705 6.49414 14.7705H7.49414C8.04643 14.7705 8.49414 15.2182 8.49414 15.7705V19.7705C8.49414 20.3228 8.04643 20.7705 7.49414 20.7705H6.49414Z" fill="current"/>
</g>
</svg>
