<svg width="525" height="525" viewBox="0 0 525 525" fill="none" xmlns="http://www.w3.org/2000/svg">
<g clip-path="url(#clip0_935_977)">
<path d="M567 567H176.106C197.046 529.516 218.744 488.911 225.83 487.811C247.18 484.497 293.267 512.118 370.461 435.193C396.521 409.223 408.826 394.734 414.421 387.398C427 376.505 429.111 357.566 418.899 344.132C415.336 339.444 410.723 336.023 405.64 333.945C409.959 324.362 409.44 312.844 403.246 303.403C397.019 293.912 386.581 288.846 376.012 289.05C379.656 279.77 378.893 268.923 373.008 259.953C370.044 255.436 366.127 251.922 361.696 249.501L217.318 390.567C198.698 408.761 168.853 408.415 150.659 389.794V389.793C149.873 388.988 149.132 388.169 148.431 387.343C146.183 384.838 144.196 382.083 142.516 379.123C114.23 410.318 51.8391 463.238 0 509.826V0H567V567Z" fill="white"/>
<path d="M380.828 126.965C391.548 116.491 408.73 116.691 419.204 127.411C429.678 138.131 429.479 155.312 418.759 165.786L203.341 376.262C192.621 386.736 175.439 386.537 164.965 375.816C164.452 375.292 163.966 374.751 163.505 374.197C159.437 369.759 156.813 363.947 156.431 357.469L147.594 207.279C146.713 192.318 158.128 179.475 173.09 178.595C188.051 177.714 200.895 189.129 201.775 204.091L207.218 296.591L380.828 126.965Z" fill="#75A07C"/>
<rect x="307.379" y="91.958" width="20.3803" height="54.7111" rx="10.1902" transform="rotate(45 307.379 91.958)" fill="#75A07C"/>
<rect width="20.3803" height="54.7111" rx="10.1902" transform="matrix(-0.707107 0.707107 0.707107 0.707107 196.411 91.958)" fill="#75A07C"/>
<rect width="20" height="55" rx="10" transform="matrix(1 0 0 -1 241.79 126)" fill="#75A07C"/>
</g>
<defs>
<clipPath id="clip0_935_977">
<rect width="525" height="525" rx="16" fill="white"/>
</clipPath>
</defs>
</svg>
