<svg width="600" height="600" viewBox="0 0 600 600" fill="none" xmlns="http://www.w3.org/2000/svg">
<path d="M280.715 482C284.341 481.437 288.68 481.77 293.764 482.328L395.68 584.243C369.937 592.93 343.253 598.023 316.403 599.526L247.833 530.957C262.593 504.643 275.544 482.802 280.715 482ZM268.094 598.359C250.402 596.506 232.845 593.082 215.646 588.091C220.545 579.778 225.732 570.603 230.967 561.232L268.094 598.359ZM488.31 533.186C469.82 548.193 449.96 560.67 429.193 570.62L340.433 481.859C358.096 478.095 379.169 468.967 403.923 448.8L488.31 533.186ZM88.7666 86.5057C206.03 -29.2877 394.959 -28.8333 511.659 87.868C628.359 204.569 628.816 393.496 513.022 510.76L428.494 426.231C452.406 402.231 463.939 388.621 469.305 381.588C481.885 370.695 483.996 351.753 473.784 338.319C470.221 333.631 465.608 330.211 460.525 328.134C464.844 318.55 464.324 307.031 458.131 297.591C451.904 288.099 441.466 283.034 430.896 283.238C434.541 273.958 433.778 263.111 427.893 254.14C419.356 241.13 402.908 236.434 389.055 242.231C396.059 234.374 413.111 216.68 432.904 196.829C474.183 155.431 480.286 148.728 481.185 143.807C484.267 126.917 473.67 113.17 457.583 113.189C453.43 113.195 448.035 114.225 445.593 115.477C443.144 116.737 406.514 152.359 364.188 194.644C321.867 236.928 286.098 271.526 284.693 271.538C280.655 271.538 279.106 266.972 280.715 259.814C283.016 249.569 289.458 203.676 289.423 197.771C289.306 178.356 268.056 165.233 250.498 173.732C238.861 179.366 236.914 183.921 231.774 217.518C231.243 220.994 230.697 224.449 230.145 227.884L88.7666 86.5057ZM111.33 441.596C93.4667 457.672 76.5896 473.251 64.4463 486.42C28.0505 440.639 6.95752 386.686 1.16992 331.436L111.33 441.596ZM184.802 373.366C171.974 386.95 154.462 402.937 136.195 419.32L0 283.127C1.50331 256.277 6.5978 229.59 15.2832 203.849L184.802 373.366ZM223.038 267.917C217.73 295.143 211.677 320.983 204.857 345.536C204.805 345.725 204.746 345.917 204.685 346.11L28.9072 170.333C38.8574 149.567 51.3352 129.708 66.3398 111.22L223.038 267.917ZM233.38 95.4744C232.428 95.4746 230.605 96.521 229.325 97.7996C228.047 99.0797 227 100.984 227 102.032C227.006 104.897 275.785 153.193 278.672 153.193C281.799 153.193 284.718 150.363 284.719 147.331C284.715 144.679 236.002 95.4744 233.38 95.4744ZM381.282 95.4744C379.97 95.4767 368.031 106.272 354.75 119.465C335.12 138.965 330.598 144.225 330.598 147.556C330.598 150.751 331.46 151.873 334.493 152.634C338.018 153.519 340.751 151.236 363.353 128.526C377.077 114.734 388.309 102.704 388.317 101.784C388.317 99.3302 384.017 95.4744 381.282 95.4744ZM310.497 63.8133C306.991 62.468 305.875 62.6901 303.323 65.24C301.346 67.2192 300.999 72.6171 300.999 101.394C300.999 130.173 301.346 135.57 303.323 137.549C304.603 138.827 306.469 139.874 307.468 139.874C312.38 139.874 312.839 136.514 312.839 100.516C312.839 69.2339 312.542 64.5979 310.497 63.8133Z" fill="current"/>
</svg>
