<svg width="24" height="24" viewBox="0 0 24 24" fill="none" xmlns="http://www.w3.org/2000/svg">
<mask id="mask0_140_174" style="mask-type:alpha" maskUnits="userSpaceOnUse" x="0" y="0" width="24" height="24">
<rect width="24" height="24" fill="current"/>
</mask>
<g mask="url(#mask0_140_174)">
<path d="M10.8208 20.9238C11.2054 20.974 11.5989 21 12 21V24C11.4686 24 10.9458 23.9615 10.4326 23.8945L10.8208 20.9238ZM13.3726 22.4106L13.4575 23.0566L13.5659 23.8945C13.0532 23.9614 12.5309 24 12 24V21C12.4011 21 12.7946 20.974 13.1792 20.9238L13.3726 22.4106ZM6.52295 19.1426C7.14307 19.619 7.8263 20.0162 8.55615 20.3188L7.40625 23.0874C6.43104 22.6829 5.52176 22.1529 4.69629 21.5186L6.52295 19.1426ZM19.3022 21.5186C18.4767 22.1529 17.5676 22.683 16.5923 23.0874L15.4438 20.3188C16.1737 20.0162 16.8569 19.619 17.4771 19.1426L19.3022 21.5186ZM3.68115 15.4438C3.98381 16.1737 4.38095 16.8569 4.85742 17.4771L2.47998 19.3022C1.84581 18.4767 1.31546 17.5675 0.911133 16.5923L3.68115 15.4438ZM23.0874 16.5923C22.683 17.5676 22.1529 18.4767 21.5186 19.3022L19.1426 17.4771C19.619 16.8569 20.0162 16.1737 20.3188 15.4438L23.0874 16.5923ZM0 12C0 11.4687 0.0370581 10.9457 0.104004 10.4326L1.58936 10.626L3.07617 10.8208C3.02601 11.2054 3 11.5989 3 12C3 12.4011 3.02601 12.7946 3.07617 13.1792L0.104004 13.5659C0.0371814 13.0533 0 12.5308 0 12ZM24 12C24 12.5309 23.9614 13.0532 23.8945 13.5659L22.4106 13.374L20.9238 13.1792C20.974 12.7946 21 12.4011 21 12C21 11.5989 20.974 11.2054 20.9238 10.8208L23.8945 10.4326C23.9615 10.9458 24 11.4686 24 12ZM4.85742 6.52295C4.38095 7.14307 3.98381 7.8263 3.68115 8.55615L0.911133 7.40625C1.31555 6.43112 1.84577 5.52172 2.47998 4.69629L4.85742 6.52295ZM21.5186 4.69629C22.1529 5.52176 22.6829 6.43104 23.0874 7.40625L20.3188 8.55615C20.0162 7.8263 19.619 7.14307 19.1426 6.52295L21.5186 4.69629ZM8.55615 3.68115C7.8263 3.98381 7.14307 4.38095 6.52295 4.85742L4.69629 2.47998C5.52172 1.84577 6.43112 1.31555 7.40625 0.911133L8.55615 3.68115ZM16.5923 0.911133C17.5675 1.31546 18.4767 1.84581 19.3022 2.47998L17.4771 4.85742C16.8569 4.38095 16.1737 3.98381 15.4438 3.68115L16.5923 0.911133ZM12 0C12.5308 0 13.0533 0.0371814 13.5659 0.104004L13.374 1.58936L13.3726 1.58789L13.1792 3.07617C12.7946 3.02601 12.4011 3 12 3C11.5989 3 11.2054 3.02601 10.8208 3.07617L10.4326 0.104004C10.9457 0.0370581 11.4687 0 12 0Z" fill="current"/>
</g>
</svg>
