<svg width="129" height="128" viewBox="0 0 129 128" fill="none" xmlns="http://www.w3.org/2000/svg">
<mask id="mask0_9_121" style="mask-type:alpha" maskUnits="userSpaceOnUse" x="0" y="0" width="129" height="128">
<rect x="0.5" width="128" height="128" fill="current"/>
</mask>
<g mask="url(#mask0_9_121)">
<path d="M59.1666 106.666V63.1997L45.2999 77.0663L37.8333 69.333L64.4999 42.6663L91.1666 69.333L83.6999 77.0663L69.8332 63.1997V106.666H59.1666ZM21.8333 47.9997V31.9997C21.8333 29.0663 22.8777 26.5552 24.9666 24.4663C27.0555 22.3775 29.5666 21.333 32.4999 21.333H96.4999C99.4332 21.333 101.944 22.3775 104.033 24.4663C106.122 26.5552 107.167 29.0663 107.167 31.9997V47.9997H96.4999V31.9997H32.4999V47.9997H21.8333Z" fill="current"/>
</g>
</svg>
